<?xml version="1.0" encoding="UTF-8"?>
<svg id="Capa_1" xmlns="http://www.w3.org/2000/svg" viewBox="0 0 1369.29 382.03">
  <defs>
    <style>
      .cls-1 {
        fill: #fff;
      }

      .cls-2 {
        fill: none;
        stroke: #fff;
        stroke-linecap: round;
        stroke-miterlimit: 10;
        stroke-width: 9px;
      }
    </style>
  </defs>
  <g>
    <path class="cls-2" d="M194.61,171.54c11.8,10.78,19.2,26.29,19.2,43.53v64.02l42.83,21.52c1.53.77.98,3.08-.73,3.08h-42.1"/>
    <path class="cls-2" d="M81.54,303.68h-37.42c-1.75,0-2.26-2.38-.67-3.1l38.09-17.25v-68.26c0-16.48,6.77-31.38,17.67-42.08"/>
    <line class="cls-2" x1="133.51" y1="324.65" x2="206.68" y2="324.65"/>
    <path class="cls-2" d="M225.73,303.68s12.05,7.85,12.05,20.97"/>
    <path class="cls-2" d="M79.58,303.68s-12.05,7.85-12.05,20.97"/>
    <line class="cls-2" x1="220.68" y1="324.65" x2="292.21" y2="324.65"/>
    <line class="cls-2" x1="109.49" y1="324.65" x2="10.35" y2="324.65"/>
    <line class="cls-2" x1="119.95" y1="171.48" x2="119.95" y2="90.93"/>
    <line class="cls-2" x1="100.81" y1="171.48" x2="100.81" y2="93.02"/>
    <path class="cls-2" d="M133.89,74.12c-2.81,10.87-12.68,18.9-24.43,18.9s-21.53-7.95-24.39-18.75"/>
    <path class="cls-2" d="M84.67,63.06c2.21-11.68,12.47-20.5,24.79-20.5s22.62,8.86,24.8,20.57"/>
    <rect class="cls-2" x="79.83" y="63.13" width="59.39" height="10.99" rx="5.5" ry="5.5"/>
    <ellipse class="cls-1" cx="109.52" cy="69.65" rx="9.34" ry="6.52"/>
    <line class="cls-2" x1="175.52" y1="171.48" x2="175.52" y2="90.93"/>
    <line class="cls-2" x1="194.66" y1="171.48" x2="194.66" y2="93.02"/>
    <path class="cls-2" d="M161.58,74.12c2.81,10.87,12.68,18.9,24.43,18.9,11.69,0,21.53-7.95,24.39-18.75"/>
    <path class="cls-2" d="M210.8,63.06c-2.21-11.68-12.47-20.5-24.79-20.5s-22.62,8.86-24.8,20.57"/>
    <rect class="cls-2" x="156.25" y="63.13" width="59.39" height="10.99" rx="5.5" ry="5.5" transform="translate(371.89 137.25) rotate(-180)"/>
    <ellipse class="cls-1" cx="185.95" cy="69.65" rx="9.34" ry="6.52"/>
    <path class="cls-2" d="M115.61,242.8s1.06-2.9,6.85-4.46h50.14s5.29,1.46,6.36,5.97"/>
    <path class="cls-1" d="M99.94,131.21v43.99s-19.08,15.47-19.17,40.45l.92,60.55c-17.57-16.75-28.45-39.98-28.45-65.67,0-33.7,18.73-63.18,46.7-79.32"/>
    <path class="cls-1" d="M197.33,131.21v43.99s19.08,15.47,19.17,40.45l-.92,60.55c17.57-16.75,28.45-39.98,28.45-65.67,0-33.7-18.73-63.18-46.7-79.32"/>
    <path class="cls-1" d="M175.52,159.02c-3.77-.76-15.45-2.89-19.45-2.89h-14.41c-6.38,0-13.7,1.01-19.45,2.89l-2.25-35.73c9.06-2.74,18.79-4.23,28.91-4.23s19.02,1.37,27.75,3.89l-1.09,36.08Z"/>
  </g>
  <g>
    <path class="cls-1" d="M342.45,154.08c3.39-.93,6.89-1.39,10.49-1.39,8.02,0,18.26,2.57,30.71,7.71,5.14,2.16,9.51,4.81,13.12,7.95,3.6,3.14,5.4,5.84,5.4,8.1v3.09l-3.24-.93c-2.16-.62-3.39-.82-3.7-.62-.1.31-.15.62-.15.93,0,1.23.26,3.29.77,6.17.72,5.25,1.08,10.34,1.08,15.28,0,6.58-.52,11.93-1.54,16.05-4.22,16.36-13.99,29.62-29.32,39.81-9.77,6.27-16.25,9.41-19.44,9.41h-.62l-3.09-.31,2.93-4.17c2.47-3.7,4.06-6.33,4.78-7.87l1.7-3.86-4.32-3.86c-2.88-2.67-4.89-4.01-6.02-4.01s-1.85-.98-2.16-2.93c-1.13-6.38-1.7-20.62-1.7-42.74,0-4.11.05-6.89.15-8.33l.46-13.58-2.78.46c-.1,0-.28.03-.54.08-.26.05-.44.08-.54.08-2.78,0-4.99-1.18-6.63-3.55-.41-.62-.62-3.09-.62-7.41,0-3.7.39-6.02,1.16-6.94s2.7-1.39,5.79-1.39c1.95,0,4.58-.41,7.87-1.23ZM369.76,175.53c-5.55-1.85-8.95-2.78-10.18-2.78-.52,0-.88.23-1.08.69-.21.46-.41,1.47-.62,3.01-.31,2.26-.46,9.16-.46,20.68,0,14.61.26,25.67.77,33.17l.46,8.95,5.71-5.71c8.95-9.05,13.42-20.57,13.42-34.56,0-2.57-.05-4.53-.15-5.86-.52-7.71-1.11-12.29-1.77-13.73-.67-1.44-2.7-2.72-6.09-3.86Z"/>
    <path class="cls-1" d="M412.96,186.17c0-.21-.05-.75-.15-1.62-.1-.87-.15-1.47-.15-1.77,0-1.44.77-2.57,2.31-3.39,1.54-.82,4.37-1.64,8.49-2.47,1.54-.31,2.96-.64,4.24-1,1.29-.36,2.31-.62,3.09-.77s1.67-.23,2.7-.23c6.58,0,11.98,1.16,16.2,3.47,4.22,2.31,8.12,6.25,11.73,11.8,1.75,2.57,2.62,4.58,2.62,6.02s-1.23,2.16-3.7,2.16c-.52,0-1.52-.05-3.01-.15-1.49-.1-2.55-.15-3.16-.15-2.47,0-4.27.21-5.4.62-.93.31-1.75.46-2.47.46-.62,0-1.7-.77-3.24-2.31-1.85-1.75-4.32-2.62-7.41-2.62s-4.89.41-5.71,1.23c-.41.41-.93,1.96-1.54,4.63-.62,2.68-.93,4.68-.93,6.02,0,.82.31,1.23.93,1.23.21,0,.51-.05.93-.15.41-.1.9-.26,1.47-.46.56-.21,1.1-.36,1.62-.46,8.12-2.37,15.69-3.55,22.68-3.55h1.85c2.98.52,4.47,1.6,4.47,3.24,0,.52-.46,1.23-1.39,2.16-.93.82-2.14,2.68-3.63,5.55-1.49,2.88-2.24,4.78-2.24,5.71,0,.82-4.01,2.21-12.04,4.17l-12.04,3.09.62,3.09c.31,1.85.98,4.37,2.01,7.56.62,1.96,1.1,3.16,1.47,3.63.36.46,1.05.69,2.08.69h.77c1.64,0,5.25-1.29,10.8-3.86,4.94-2.37,7.92-3.55,8.95-3.55,1.44,0,2.16.88,2.16,2.62,0,.93-.64,3.73-1.93,8.41-1.29,4.68-1.93,7.28-1.93,7.79,0,1.44-2.78,3.19-8.33,5.25-5.55,2.06-10.18,3.09-13.89,3.09-.82,0-1.39-.05-1.7-.15-5.66-1.03-10.13-4.42-13.42-10.18-3.29-5.76-5.86-14.66-7.71-26.69-.72-5.04-1.08-10.7-1.08-16.97,0-10.28.87-16.3,2.62-18.05.93-.93,1.39-1.95,1.39-3.09Z"/>
    <path class="cls-1" d="M526.37,172.75c0,.82-.18,2.42-.54,4.78-.36,2.37-.54,3.7-.54,4.01,0,.93.18,1.57.54,1.93.36.36,1.05.64,2.08.85,1.64.31,2.72.88,3.24,1.7.31.52.56,7.41.77,20.68.1,10.9.54,19.06,1.31,24.46s2.34,11.09,4.71,17.05c1.34,3.6,2.01,6.33,2.01,8.18v.93l-.46,2.16-6.94-3.09c-4.94-1.95-8.18-2.93-9.72-2.93-1.75,0-3.01-.75-3.78-2.24-.77-1.49-1.88-5.32-3.32-11.5-1.96-8.43-3.29-18.93-4.01-31.48l-.31-3.7c-1.96,1.85-4.84,4.6-8.64,8.25-3.81,3.65-6.63,6.4-8.49,8.25l1.39,19.9c.62,10.29.93,15.89.93,16.82,0,3.6-.57,5.4-1.7,5.4-.93,0-2.98-1.34-6.17-4.01-4.32-3.29-7.1-5.09-8.33-5.4-1.75-.41-2.62-1.08-2.62-2.01s-.57-7.04-1.7-18.36c-1.65-15.94-2.47-29.37-2.47-40.27,0-3.09.62-5.4,1.85-6.94l2.16-2.62,6.48,1.23c4.63.82,7.25,1.44,7.87,1.85.72.52,1.08,2.01,1.08,4.47v3.55l7.71-7.25c5.14-4.94,9.98-8.95,14.5-12.04,4.53-3.29,7.35-4.94,8.49-4.94,1.75,0,2.62.77,2.62,2.31Z"/>
    <path class="cls-1" d="M558.16,154.08c3.39-.93,6.89-1.39,10.49-1.39,8.02,0,18.26,2.57,30.71,7.71,5.14,2.16,9.51,4.81,13.12,7.95,3.6,3.14,5.4,5.84,5.4,8.1v3.09l-3.24-.93c-2.16-.62-3.39-.82-3.7-.62-.1.31-.15.62-.15.93,0,1.23.25,3.29.77,6.17.72,5.25,1.08,10.34,1.08,15.28,0,6.58-.52,11.93-1.54,16.05-4.22,16.36-13.99,29.62-29.32,39.81-9.77,6.27-16.25,9.41-19.44,9.41h-.62l-3.09-.31,2.93-4.17c2.47-3.7,4.06-6.33,4.78-7.87l1.7-3.86-4.32-3.86c-2.88-2.67-4.89-4.01-6.02-4.01s-1.85-.98-2.16-2.93c-1.13-6.38-1.7-20.62-1.7-42.74,0-4.11.05-6.89.15-8.33l.46-13.58-2.78.46c-.1,0-.29.03-.54.08-.26.05-.44.08-.54.08-2.78,0-4.99-1.18-6.63-3.55-.41-.62-.62-3.09-.62-7.41,0-3.7.39-6.02,1.16-6.94s2.7-1.39,5.79-1.39c1.95,0,4.58-.41,7.87-1.23ZM585.47,175.53c-5.55-1.85-8.95-2.78-10.18-2.78-.52,0-.88.23-1.08.69-.21.46-.41,1.47-.62,3.01-.31,2.26-.46,9.16-.46,20.68,0,14.61.25,25.67.77,33.17l.46,8.95,5.71-5.71c8.95-9.05,13.42-20.57,13.42-34.56,0-2.57-.05-4.53-.15-5.86-.52-7.71-1.11-12.29-1.77-13.73-.67-1.44-2.7-2.72-6.09-3.86Z"/>
    <path class="cls-1" d="M628.67,186.17c0-.21-.05-.75-.15-1.62-.1-.87-.15-1.47-.15-1.77,0-1.44.77-2.57,2.31-3.39,1.54-.82,4.37-1.64,8.49-2.47,1.54-.31,2.96-.64,4.24-1,1.29-.36,2.31-.62,3.09-.77s1.67-.23,2.7-.23c6.58,0,11.98,1.16,16.2,3.47,4.22,2.31,8.12,6.25,11.73,11.8,1.75,2.57,2.62,4.58,2.62,6.02s-1.23,2.16-3.7,2.16c-.52,0-1.52-.05-3.01-.15-1.49-.1-2.55-.15-3.16-.15-2.47,0-4.27.21-5.4.62-.93.31-1.75.46-2.47.46-.62,0-1.7-.77-3.24-2.31-1.85-1.75-4.32-2.62-7.41-2.62s-4.89.41-5.71,1.23c-.41.41-.93,1.96-1.54,4.63-.62,2.68-.93,4.68-.93,6.02,0,.82.31,1.23.93,1.23.21,0,.51-.05.93-.15.41-.1.9-.26,1.47-.46.56-.21,1.1-.36,1.62-.46,8.12-2.37,15.68-3.55,22.68-3.55h1.85c2.98.52,4.47,1.6,4.47,3.24,0,.52-.46,1.23-1.39,2.16-.93.82-2.14,2.68-3.63,5.55-1.49,2.88-2.24,4.78-2.24,5.71,0,.82-4.01,2.21-12.04,4.17l-12.04,3.09.62,3.09c.31,1.85.98,4.37,2.01,7.56.62,1.96,1.1,3.16,1.47,3.63.36.46,1.05.69,2.08.69h.77c1.64,0,5.25-1.29,10.8-3.86,4.94-2.37,7.92-3.55,8.95-3.55,1.44,0,2.16.88,2.16,2.62,0,.93-.64,3.73-1.93,8.41-1.29,4.68-1.93,7.28-1.93,7.79,0,1.44-2.78,3.19-8.33,5.25-5.55,2.06-10.18,3.09-13.89,3.09-.83,0-1.39-.05-1.7-.15-5.66-1.03-10.13-4.42-13.42-10.18-3.29-5.76-5.86-14.66-7.71-26.69-.72-5.04-1.08-10.7-1.08-16.97,0-10.28.87-16.3,2.62-18.05.93-.93,1.39-1.95,1.39-3.09Z"/>
    <path class="cls-1" d="M742.08,172.75c0,.82-.18,2.42-.54,4.78-.36,2.37-.54,3.7-.54,4.01,0,.93.18,1.57.54,1.93.36.36,1.05.64,2.08.85,1.64.31,2.72.88,3.24,1.7.31.52.56,7.41.77,20.68.1,10.9.54,19.06,1.31,24.46s2.34,11.09,4.71,17.05c1.33,3.6,2.01,6.33,2.01,8.18v.93l-.46,2.16-6.94-3.09c-4.94-1.95-8.18-2.93-9.72-2.93-1.75,0-3.01-.75-3.78-2.24-.77-1.49-1.88-5.32-3.32-11.5-1.96-8.43-3.29-18.93-4.01-31.48l-.31-3.7c-1.96,1.85-4.84,4.6-8.64,8.25-3.81,3.65-6.63,6.4-8.49,8.25l1.39,19.9c.62,10.29.93,15.89.93,16.82,0,3.6-.57,5.4-1.7,5.4-.93,0-2.99-1.34-6.17-4.01-4.32-3.29-7.1-5.09-8.33-5.4-1.75-.41-2.62-1.08-2.62-2.01s-.57-7.04-1.7-18.36c-1.65-15.94-2.47-29.37-2.47-40.27,0-3.09.62-5.4,1.85-6.94l2.16-2.62,6.48,1.23c4.63.82,7.25,1.44,7.87,1.85.72.52,1.08,2.01,1.08,4.47v3.55l7.71-7.25c5.14-4.94,9.98-8.95,14.5-12.04,4.53-3.29,7.35-4.94,8.49-4.94,1.75,0,2.62.77,2.62,2.31Z"/>
    <path class="cls-1" d="M784.2,227.37c0,3.29.13,7.95.39,13.96.25,6.02.39,10.26.39,12.73,0,2.68-.31,4.37-.93,5.09-.52.62-.93.93-1.23.93-.72,0-2.73-1.59-6.02-4.78-3.81-3.6-6.48-5.61-8.02-6.02-1.54-.41-2.31-.77-2.31-1.08,0-.1-.05-.77-.15-2.01-.1-1.23-.23-3.06-.39-5.48-.15-2.42-.29-4.71-.39-6.87-1.44-22.73-2.16-37.24-2.16-43.51,0-3.8.31-6.17.93-7.1,1.54-2.57,5.45-3.86,11.73-3.86,2.26,0,3.8.41,4.63,1.23.82.82,1.39,2.52,1.7,5.09l.46,3.55,2.78-2.62c2.26-2.06,5.25-4.42,8.95-7.1,4.22-3.09,6.48-4.63,6.79-4.63.93,0,1.75.23,2.47.69.72.46,1.08,1.06,1.08,1.77,0,1.03,1.13,1.6,3.39,1.7,2.16,0,4.78.72,7.87,2.16,1.95.93,3.14,1.65,3.55,2.16.41.52.62,1.44.62,2.78v4.78l10.8-10.65,5.55.46c4.22.41,7.46,1.08,9.72,2.01l4.47,1.54-.15,4.47c-.1,3.5-.15,8.23-.15,14.2,0,16.97,1.85,30.86,5.55,41.66,1.75,5.25,2.62,8.95,2.62,11.11,0,1.44-.31,2.16-.93,2.16-.1,0-2.42-1.03-6.94-3.09-4.53-2.06-7.56-3.09-9.1-3.09-1.34,0-2.29-.36-2.85-1.08-.57-.72-1.37-2.78-2.39-6.17-2.88-9.05-4.68-18.36-5.4-27.93l-.62-7.87-2.31,2.16c-4.01,3.5-7,5.25-8.95,5.25h-.31c-.1,0-.21-.02-.31-.08-.1-.05-.21-.08-.31-.08-.62,0-.93.98-.93,2.93,0,8.85,1.33,17.03,4.01,24.53,1.75,5.25,2.62,8.79,2.62,10.65v.62l-.62,2.16-5.25-2.62c-3.7-1.85-7-3.14-9.88-3.86l-4.78-1.08-2.01-6.63c-2.26-7.61-3.39-16.41-3.39-26.38,0-1.95.1-4.37.31-7.25l.77-8.02c-3.6,3.29-8.64,7.97-15.12,14.04l.15,12.34Z"/>
    <path class="cls-1" d="M911.5,179.08c1.44-1.85,2.37-2.78,2.78-2.78,1.23,0,3.6.57,7.1,1.7,3.5,1.13,5.45,1.96,5.86,2.47.41.62.62,1.65.62,3.09,0,2.16-.21,5.15-.62,8.95-.31,3.5-.46,8.02-.46,13.58,0,14.71.82,29.22,2.47,43.51.51,4.84.77,7.71.77,8.64,0,1.44-.26,2.57-.77,3.39l-1.39,1.85-2.93-2.93c-2.16-2.16-4.47-4.09-6.94-5.79s-4.17-2.55-5.09-2.55c-1.03,0-1.54-.36-1.54-1.08,0-.51-.05-.77-.15-.77-.21,0-.54.59-1,1.77-.46,1.18-.69,2.19-.69,3.01,0,1.03-.23,1.83-.69,2.39-.46.57-1.57,1.21-3.32,1.93-3.19,1.23-6.58,1.95-10.18,2.16-.41,0-.93.02-1.54.08-.62.05-1.03.08-1.23.08-2.47,0-4.68-.52-6.63-1.54-6.17-2.98-11.11-8.02-14.81-15.12-3.09-6.07-4.63-14.09-4.63-24.07,0-3.39.05-6.07.15-8.02.51-12.14,1-19.98,1.47-23.53s1.26-6.25,2.39-8.1c1.54-2.26,2.47-3.39,2.78-3.39,1.03,0,3.26.59,6.71,1.77,3.45,1.18,5.48,2.03,6.09,2.55.82.72,1.23,1.85,1.23,3.39,0,1.65-.1,3.19-.31,4.63-.52,4.12-.77,12.4-.77,24.84,0,8.02.08,13.22.23,15.58.15,2.37.59,4.22,1.31,5.55,2.37,4.63,4.73,6.94,7.1,6.94,1.33,0,3.99-1.1,7.95-3.32,3.96-2.21,5.94-3.73,5.94-4.55,0-.21-.05-1.16-.15-2.85-.1-1.7-.21-4.04-.31-7.02-.1-2.98-.21-5.86-.31-8.64v-9.57c0-15.63,1.18-25.05,3.55-28.24Z"/>
    <path class="cls-1" d="M949.14,208.08c2.88,0,8.41-.41,16.59-1.23,8.18-.82,13.81-1.23,16.9-1.23h1.54c5.04,0,7.56.67,7.56,2.01,0,.82-.77,2.37-2.31,4.63-1.65,2.47-2.88,5.04-3.7,7.71l-1.23,3.55-7.87,1.08c-8.95,1.34-18.46,2.01-28.54,2.01-2.47,0-4.27-.46-5.4-1.39-1.03-1.03-1.54-2.42-1.54-4.17,0-1.54.15-3.86.46-6.94s.56-4.78.77-5.09c.41-.62,2.67-.93,6.79-.93Z"/>
    <path class="cls-1" d="M1021.35,179.23c6.58-3.6,15.02-5.4,25.3-5.4h2.01c3.29,0,5.42.13,6.4.39.98.26,1.88.85,2.7,1.77,1.03,1.03,1.54,2.31,1.54,3.86,0,1.23-.05,2.26-.15,3.09-.52,4.73-1.03,7.51-1.54,8.33-.52.82-1.96,1.23-4.32,1.23h-1.7c-7.1,0-14.04,1.08-20.83,3.24-2.78.82-4.61,2.26-5.48,4.32-.88,2.06-1.62,6.48-2.24,13.27-.41,4.73-.62,7.82-.62,9.26,0,9.05,2.16,14.92,6.48,17.59.31.21.87.31,1.7.31,3.6,0,8.54-2.88,14.81-8.64,4.63-4.32,7.92-6.48,9.88-6.48.51,0,.77.15.77.46,0,.1-.52,2.73-1.54,7.87-.83,4.12-1.23,7.97-1.23,11.57,0,2.26-.18,3.7-.54,4.32-.36.62-1.57,1.6-3.63,2.93-6.79,4.63-13.12,6.94-18.98,6.94-6.38,0-12.04-2.52-16.97-7.56-6.69-6.79-10.03-16.25-10.03-28.39,0-6.07.77-13.01,2.31-20.83.82-4.42,1.23-7.66,1.23-9.72,0-.21-.03-.41-.08-.62-.05-.21-.08-.41-.08-.62,0-1.54,1.21-3.78,3.63-6.71,2.42-2.93,4.29-4.4,5.63-4.4.1,0,.15.03.15.08s.05.08.15.08h.46c1.33,0,2.93-.51,4.78-1.54Z"/>
    <path class="cls-1" d="M1091.25,228.45c0,1.13.39,5.45,1.16,12.96.77,7.51,1.16,12.29,1.16,14.35,0,1.44-.21,2.68-.62,3.7-.52,1.44-1.03,2.16-1.54,2.16-.31,0-1.34-1.13-3.09-3.39-1.44-2.16-3.65-4.63-6.63-7.41-2.99-2.78-4.89-4.17-5.71-4.17-.72,0-1.29-.67-1.7-2.01-.41-1.44-1.65-15.02-3.7-40.73-1.65-20.68-2.99-35.08-4.01-43.2-.21-1.64-.31-2.78-.31-3.39,0-1.13.1-1.75.31-1.85.62-.41,1.18-1.18,1.7-2.31.51-1.54,2.37-2.72,5.55-3.55,2.98-.93,4.88-1.39,5.71-1.39,1.03,0,2.16.62,3.39,1.85s2.06,3.96,2.47,8.18c.1.93.44,3.86,1,8.79.56,4.94,1,8.79,1.31,11.57l1.54,14.04,3.24-4.94c5.55-7.82,11.83-13.32,18.82-16.51,3.8-1.75,6.38-2.62,7.71-2.62.82,0,1.64.26,2.47.77.82.52.77,1.6-.15,3.24-1.44,3.09-2.16,4.78-2.16,5.09,0,.93.98,1.54,2.93,1.85,2.37.31,3.83.9,4.4,1.77.56.88.85,3.37.85,7.48,0,1.54-.05,4.91-.15,10.11-.1,5.2-.15,8.77-.15,10.72,0,11.83,1.44,23.45,4.32,34.87,1.54,6.38,2.31,10.13,2.31,11.26,0,.82-.05,1.39-.15,1.7l-.93,2.47-6.02-4.01c-4.01-2.57-7.2-4.06-9.57-4.47l-3.24-.46-2.47-10.03c-2.57-11.11-3.86-22.06-3.86-32.87v-7.87l-5.09,7.41c-2.37,3.81-4.99,7.56-7.87,11.26-2.16,2.68-3.24,5.86-3.24,9.57Z"/>
    <path class="cls-1" d="M1161.92,182.01c2.06-.41,8.07-.62,18.05-.62h1.08c8.64,0,14.2.28,16.66.85,2.47.57,4.68,2.08,6.63,4.55,1.44,1.75,2.16,4.22,2.16,7.41,0,1.85-.36,3.39-1.08,4.63-.31.62-.33,1.06-.08,1.31.25.26.95.49,2.08.69,1.85.41,3.09.93,3.7,1.54s.93,1.65.93,3.09c0,1.03-.05,1.85-.15,2.47v1.7c0,3.81.93,11.63,2.78,23.45,1.95,12.45,2.93,19.85,2.93,22.22,0,1.34-.36,2.31-1.08,2.93-.31.31-.67.46-1.08.46-.62,0-2.37-.87-5.25-2.62-2.88-1.75-4.73-2.62-5.55-2.62-.72,0-1.08.52-1.08,1.54,0,1.54-3.24,2.31-9.72,2.31-1.44,0-6.69.62-15.74,1.85-15.12,2.06-25.41,3.09-30.86,3.09-1.85,0-3.45-.36-4.78-1.08-1.23-.72-2.01-1.49-2.31-2.31-.31-.82-.46-2.72-.46-5.71,0-3.91.49-6.58,1.47-8.02.98-1.44,2.75-2.16,5.32-2.16h3.24c-.1-1.13-.26-2.75-.46-4.86-.21-2.11-.36-3.73-.46-4.86,9.26-9.88,19.65-20.78,31.17-32.71h-8.95c-5.97,0-10.03-.46-12.19-1.39l-3.39-1.54.46-6.02c.21-3.5.69-5.84,1.47-7.02.77-1.18,2.29-2.03,4.55-2.55ZM1196.33,237.56l-3.7-20.98c-.52,0-4.78,3.81-12.81,11.42-8.33,7.92-12.5,12.14-12.5,12.65.31.1.79.13,1.47.08.67-.05,1.77-.18,3.32-.39.31-.1,2.55-.31,6.71-.62s8.12-.64,11.88-1c3.75-.36,5.63-.75,5.63-1.16Z"/>
    <path class="cls-1" d="M1231.82,230.92c0-2.67.23-8.64.69-17.9s.69-14.5.69-15.74c0-.31-.18-.62-.54-.93-.36-.31-1.16-.75-2.39-1.31-1.23-.56-2.11-1-2.62-1.31-3.91-2.06-5.86-3.91-5.86-5.55,0-.62.15-1.29.46-2.01.41-.82,1.18-1.59,2.31-2.31,1.13-.72,3.96-2.16,8.49-4.32,1.54-.72,2.55-1.7,3.01-2.93s1.05-4.58,1.77-10.03c.62-4.83,1.54-8.07,2.78-9.72,1.13-1.54,2.52-2.31,4.17-2.31.72,0,2.47.26,5.25.77,2.78.52,4.68,1.26,5.71,2.24,1.03.98,1.54,2.6,1.54,4.86,0,1.34-.05,2.37-.15,3.09l-.62,5.55,4.63.77c5.86.72,9.88,1.36,12.04,1.93,2.16.57,3.24,1.42,3.24,2.55,0,1.34-1.54,3.5-4.63,6.48-3.6,3.39-5.4,5.61-5.4,6.63,0,.82-1.23,1.23-3.7,1.23h-3.55c-2.99,0-4.63.15-4.94.46-.62.62-1.31,6.63-2.08,18.05s-1.16,20.88-1.16,28.39v2.31c0,3.09.36,4.63,1.08,4.63,1.64,0,5.45-2.42,11.42-7.25,3.6-2.88,6.17-4.32,7.71-4.32,1.44,0,3.8,1.8,7.1,5.4,3.29,3.5,4.94,5.55,4.94,6.17,0,.93-2.75,3.55-8.25,7.87-5.5,4.32-9.7,7.15-12.58,8.49-3.91,1.75-5.86,3.09-5.86,4.01,0,.62-.57.82-1.7.62l-.31-.15h-.46c-1.54,0-4.27.36-8.18,1.08-4.12.82-7.71,1.23-10.8,1.23-2.68,0-4.53-.46-5.55-1.39-1.03-1.03-1.54-1.7-1.54-2.01,0-.62.82-1.23,2.47-1.85,1.23-.41,2.39-1.18,3.47-2.31s1.62-2.31,1.62-3.55c0-.72-.31-1.9-.93-3.55-1.85-5.55-2.78-12.91-2.78-22.06Z"/>
  </g>
</svg>